Coordinates
version=1
nRows=21
nColumns=12
inDegrees=yes

Units are S.I. units (second, meters, Newtons, ...)
Angles are in degrees

endheader
time	SC_y	SC_z	SC_x	AC_y	AC_z	AC_x	GH_y	GH_z	GH_yy	EL_x	PS_y
       0.0              -26.65          27.92          25.65          38.22         -3.772          10.63         -76.83          41.36          22.88          129.7          30.48
   0.02237              -26.65          27.92          25.65          38.22          -3.77          10.63          -76.8          41.35          22.88          129.7           30.5
   0.04473              -26.64          27.92          25.65          38.22         -3.769          10.63         -76.76          41.34          22.88          129.7          30.52
    0.0671              -26.64          27.91          25.64          38.22         -3.767          10.62         -76.73          41.33          22.88          129.7          30.54
   0.08946              -26.64          27.91          25.64          38.22         -3.764          10.62         -76.69          41.32          22.88          129.7          30.56
    0.1118              -26.64          27.91          25.63          38.21         -3.762          10.62         -76.65          41.31          22.88          129.7          30.58
    0.1342              -26.64           27.9          25.63          38.21          -3.76          10.62          -76.6           41.3          22.88          129.7           30.6
    0.1566              -26.63           27.9          25.63          38.21         -3.757          10.62         -76.55          41.29          22.88          129.7          30.63
    0.1789              -26.63           27.9          25.62          38.21         -3.754          10.61          -76.5          41.27          22.88          129.7          30.66
    0.2013              -26.63          27.89          25.62          38.21         -3.751          10.61         -76.45          41.26          22.88          129.7          30.69
    0.2237              -26.62          27.89          25.61          38.21         -3.748          10.61         -76.39          41.24          22.88          129.7          30.72
     0.246              -26.62          27.88          25.61          38.21         -3.745          10.61         -76.33          41.22          22.88          129.7          30.75
    0.2684              -26.62          27.88           25.6          38.21         -3.741           10.6         -76.26           41.2          22.88          129.7          30.79
    0.2908              -26.61          27.87          25.59          38.21         -3.737           10.6         -76.19          41.18          22.88          129.7          30.83
    0.3131              -26.61          27.87          25.58           38.2         -3.732           10.6         -76.11          41.16          22.89          129.7          30.87
    0.3355               -26.6          27.86          25.58           38.2         -3.728          10.59         -76.03          41.14          22.89          129.7          30.92
    0.3578               -26.6          27.85          25.57           38.2         -3.723          10.59         -75.93          41.11          22.89          129.7          30.97
    0.3802              -26.59          27.84          25.56           38.2         -3.717          10.58         -75.83          41.09          22.89          129.7          31.02
    0.4026              -26.59          27.84          25.55           38.2         -3.711          10.58         -75.72          41.06          22.89          129.7          31.08
    0.4249              -26.58          27.83          25.54          38.19         -3.704          10.57          -75.6          41.02          22.89          129.7          31.15
    0.4473              -26.58          27.82          25.52          38.19         -3.697          10.56         -75.47          40.99          22.89          129.7          31.22
